<svg width="372" height="68" viewBox="0 0 372 68" fill="none" xmlns="http://www.w3.org/2000/svg">
<path d="M209.635 33.9999L189 13.3649L200.947 1.41833L209.635 10.1068L200.947 18.7952M209.635 33.9999L189 54.635L200.947 66.5815L209.635 57.8931L200.947 49.2047M209.635 33.9999H237.601M237.601 33.9999L222.396 49.2047L231.085 57.8931L239.773 49.2047L235.972 45.4035M237.601 33.9999L222.396 18.7952L231.085 10.1068L239.773 18.7952L235.972 22.5964M237.601 33.9999H262.309M262.309 33.9999L256.607 39.7017L262.309 45.4035L265.838 41.8738L263.666 39.7017M262.309 33.9999L256.607 28.2982L262.309 22.5964L265.838 26.126L263.666 28.2982M262.309 33.9999H363.312M363.312 33.9999L368.199 38.8872L370.371 36.7151L368.742 35.086M363.312 33.9999L368.199 29.1127L370.371 31.2848L368.742 32.9139" stroke="white" stroke-width="2"/>
<path d="M162.736 33.9999L183.371 13.3649L171.424 1.41833L162.736 10.1068L171.424 18.7952M162.736 33.9999L183.371 54.635L171.424 66.5815L162.736 57.8931L171.424 49.2047M162.736 33.9999H134.77M134.77 33.9999L149.975 49.2047L141.286 57.8931L132.598 49.2047L136.399 45.4035M134.77 33.9999L149.975 18.7952L141.286 10.1068L132.598 18.7952L136.399 22.5964M134.77 33.9999H110.062M110.062 33.9999L115.764 39.7017L110.062 45.4035L106.533 41.8738L108.705 39.7017M110.062 33.9999L115.764 28.2982L110.062 22.5964L106.533 26.126L108.705 28.2982M110.062 33.9999H9.05935M9.05935 33.9999L4.17211 38.8872L2 36.7151L3.62908 35.086M9.05935 33.9999L4.17211 29.1127L2 31.2848L3.62908 32.9139" stroke="white" stroke-width="2"/>
</svg>
